<svg width="28" height="27" viewBox="0 0 28 27" fill="none" xmlns="http://www.w3.org/2000/svg">
<path d="M27.4629 10.4997C27.4331 10.3657 27.3749 10.2396 27.2922 10.13C27.2095 10.0205 27.1043 9.92991 26.9835 9.86453L24.1313 8.2826C23.9795 7.971 23.8117 7.67139 23.6279 7.38377L23.6758 4.12402C23.6769 3.98729 23.6498 3.85181 23.5962 3.72603C23.5426 3.60024 23.4636 3.48687 23.3643 3.39297C21.9441 2.10533 20.2645 1.13684 18.4387 0.552673C18.3076 0.511788 18.1693 0.499194 18.0329 0.515721C17.8966 0.532248 17.7653 0.577521 17.6477 0.648548L14.8553 2.32636C14.5078 2.31438 14.1722 2.31438 13.8247 2.32636L11.0323 0.648548C10.9148 0.577521 10.7835 0.532248 10.6471 0.515721C10.5108 0.499194 10.3725 0.511788 10.2414 0.552673C8.4131 1.13728 6.73286 2.11027 5.31579 3.40495C5.21553 3.49562 5.13584 3.6067 5.0821 3.73073C5.02835 3.85476 5.00179 3.98886 5.00419 4.12402L5.06411 7.38377C4.87236 7.67139 4.70458 7.971 4.5368 8.2826L1.6965 9.86453C1.57427 9.92793 1.46778 10.0179 1.38483 10.1278C1.30188 10.2377 1.24458 10.3648 1.21713 10.4997C0.809622 12.3713 0.809622 14.3087 1.21713 16.1803C1.2469 16.3143 1.3051 16.4404 1.38781 16.55C1.47051 16.6595 1.57578 16.7501 1.6965 16.8155L4.54879 18.3974C4.70169 18.7074 4.8738 19.0076 5.06411 19.2962L5.00419 22.556C5.0031 22.6927 5.0302 22.8282 5.08381 22.954C5.13742 23.0798 5.21639 23.1931 5.31579 23.287C6.73794 24.572 8.41686 25.5401 10.2414 26.1273C10.3725 26.1682 10.5108 26.1808 10.6471 26.1643C10.7835 26.1478 10.9148 26.1025 11.0323 26.0315L13.8247 24.3536H14.8553L17.6597 26.0315C17.8055 26.1273 17.9766 26.1774 18.1511 26.1753C18.2485 26.1711 18.3451 26.155 18.4387 26.1273C20.2669 25.5427 21.9472 24.5697 23.3643 23.275C23.4645 23.1844 23.5442 23.0733 23.5979 22.9493C23.6517 22.8252 23.6783 22.6911 23.6758 22.556L23.6279 19.2962C23.8077 19.0086 23.9755 18.709 24.1432 18.3974L26.9955 16.8155C27.1145 16.7494 27.2178 16.6585 27.2985 16.5489C27.3792 16.4393 27.4352 16.3135 27.4629 16.1803C27.8704 14.3087 27.8704 12.3713 27.4629 10.4997ZM19.6131 13.34C19.6131 14.3829 19.3039 15.4024 18.7245 16.2696C18.145 17.1368 17.3215 17.8126 16.358 18.2117C15.3944 18.6108 14.3342 18.7153 13.3113 18.5118C12.2884 18.3083 11.3488 17.8061 10.6114 17.0687C9.8739 16.3312 9.37168 15.3916 9.16822 14.3687C8.96475 13.3459 9.06918 12.2856 9.46829 11.3221C9.8674 10.3585 10.5433 9.53498 11.4104 8.95556C12.2776 8.37614 13.2971 8.06688 14.34 8.06688C15.7385 8.06688 17.0798 8.62244 18.0687 9.61134C19.0576 10.6002 19.6131 11.9415 19.6131 13.34Z" fill="#FFFFFF"/>
</svg>
