<svg width="20" height="25" viewBox="0 0 20 25" fill="none" xmlns="http://www.w3.org/2000/svg">
<path fill-rule="evenodd" clip-rule="evenodd" d="M0 3.125C0 1.4 1.20622 0 2.69244 0H6.53879C6.84483 5.2929e-09 7.13833 0.141103 7.35473 0.392268C7.57113 0.643433 7.6927 0.984085 7.6927 1.33929C7.6927 1.69449 7.57113 2.03514 7.35473 2.2863C7.13833 2.53747 6.84483 2.67857 6.53879 2.67857H2.69244C2.59043 2.67857 2.4926 2.72561 2.42047 2.80933C2.34833 2.89305 2.30781 3.0066 2.30781 3.125V21.875C2.30781 22.1214 2.48013 22.3214 2.69244 22.3214H6.53879C6.84483 22.3214 7.13833 22.4625 7.35473 22.7137C7.57113 22.9649 7.6927 23.3055 7.6927 23.6607C7.6927 24.0159 7.57113 24.3566 7.35473 24.6077C7.13833 24.8589 6.84483 25 6.53879 25H2.69244C1.97836 25 1.29353 24.6708 0.788599 24.0847C0.283668 23.4987 0 22.7038 0 21.875V3.125ZM16.0624 11.1607H7.30806C7.00203 11.1607 6.70853 11.3018 6.49213 11.553C6.27573 11.8041 6.15416 12.1448 6.15416 12.5C6.15416 12.8552 6.27573 13.1959 6.49213 13.447C6.70853 13.6982 7.00203 13.8393 7.30806 13.8393H16.0624L13.0314 17.3571C12.9181 17.4798 12.8271 17.6276 12.7641 17.7919C12.701 17.9562 12.6671 18.1335 12.6643 18.3134C12.6616 18.4932 12.6901 18.6718 12.7482 18.8386C12.8062 19.0053 12.8926 19.1568 13.0021 19.284C13.1117 19.4112 13.2422 19.5114 13.3859 19.5788C13.5296 19.6461 13.6835 19.6792 13.8384 19.6761C13.9934 19.6729 14.1462 19.6335 14.2877 19.5603C14.4293 19.4871 14.5566 19.3816 14.6623 19.25L19.6625 13.4464C19.8786 13.1953 20 12.8549 20 12.5C20 12.1451 19.8786 11.8047 19.6625 11.5536L14.6623 5.75C14.5566 5.61842 14.4293 5.51288 14.2877 5.43968C14.1462 5.36648 13.9934 5.32712 13.8384 5.32394C13.6835 5.32077 13.5296 5.35385 13.3859 5.42121C13.2422 5.48857 13.1117 5.58883 13.0021 5.716C12.8926 5.84318 12.8062 5.99467 12.7482 6.16143C12.6901 6.3282 12.6616 6.50682 12.6643 6.68665C12.6671 6.86647 12.701 7.04382 12.7641 7.2081C12.8271 7.37239 12.9181 7.52025 13.0314 7.64286L16.0624 11.1607V11.1607Z" fill="white"/>
</svg>
